<?xml version="1.0" encoding="utf-8"?>
<!-- Generator: Adobe Illustrator 17.0.0, SVG Export Plug-In . SVG Version: 6.00 Build 0)  -->
<!DOCTYPE svg PUBLIC "-//W3C//DTD SVG 1.1//EN" "http://www.w3.org/Graphics/SVG/1.1/DTD/svg11.dtd">
<svg version="1.1" id="Layer_1" xmlns="http://www.w3.org/2000/svg" xmlns:xlink="http://www.w3.org/1999/xlink" x="0px" y="0px"
	 width="320px" height="320px" viewBox="0 0 320 320" enable-background="new 0 0 320 320" xml:space="preserve">
<g>
	<path d="M102.999,35.001v-0.075c-0.008,0.036-0.016,0.075-0.024,0.075H102.999z"/>
	<path d="M102.999,135.001v-0.075c-0.008,0.036-0.016,0.075-0.024,0.075H102.999z"/>
	<path d="M189.567,129.514c6.047-2.737,11.618-6.58,16.445-11.453c10.364-10.463,16.056-24.32,16.031-39.02
		c-0.023-14.651-5.772-28.333-16.18-38.525c-10.338-10.124-24.125-15.699-38.899-15.699l-62.903-0.074
		c-0.338-0.071-0.687-0.111-1.047-0.111c-2.793,0-4.906,2.264-4.906,5.057c0,2.685,1.892,4.859,4.892,5.025v0.211
		c0-0.024,0.009-0.05,0.015-0.05c0.013,0,0.026-0.068,0.039-0.069l63.988,0.043c25.192,0,44.958,19.416,44.998,44.225
		c0.02,12.04-4.646,23.384-13.14,31.957c-8.498,8.579-19.662,13.31-31.67,13.33L103,124.562v0.072c-1,0.005-2.689,0.61-3.577,1.573
		c-0.035,0.037-0.06,0.08-0.094,0.118c-0.161,0.186-0.319,0.374-0.452,0.583c-0.107,0.166-0.189,0.348-0.275,0.527
		c-0.051,0.106-0.114,0.205-0.158,0.315c-0.057,0.145-0.091,0.302-0.135,0.454c-0.14,0.473-0.236,0.965-0.236,1.486
		c0,1.73,0.793,3.242,2.142,4.148c0.787,0.556,1.785,0.885,2.785,0.901v0.187c0-0.024,0.009-0.05,0.015-0.05
		c0.013,0,0.025-0.068,0.038-0.069l63.988,0.043c25.192,0,44.958,19.416,44.998,44.225c0.02,12.04-4.646,23.384-13.14,31.957
		c-8.498,8.579-19.696,13.31-31.703,13.33L103,224.562v0.09c-3,0.106-4.951,2.312-4.951,5.037c0,2.793,2.218,5.057,5.011,5.057
		c0.451,0,0.858-0.078,1.274-0.189l62.806-0.2c14.684-0.023,28.484-5.811,38.87-16.296c10.364-10.463,16.057-24.32,16.032-39.02
		c-0.023-14.651-5.771-28.333-16.179-38.525C201.09,135.84,195.571,132.148,189.567,129.514z"/>
</g>
<g>
	<g>
		<path d="M172.999,54h-58c-0.829,0-1.5-0.671-1.5-1.5s0.671-1.5,1.5-1.5h58c0.828,0,1.5,0.671,1.5,1.5S173.827,54,172.999,54z"/>
	</g>
	<g>
		<path d="M188.999,68h-74c-0.829,0-1.5-0.671-1.5-1.5s0.671-1.5,1.5-1.5h74c0.828,0,1.5,0.671,1.5,1.5
			C190.499,67.329,189.827,68,188.999,68z"/>
	</g>
	<g>
		<path d="M194.999,82h-80c-0.829,0-1.5-0.671-1.5-1.5s0.671-1.5,1.5-1.5h80c0.828,0,1.5,0.671,1.5,1.5S195.827,82,194.999,82z"/>
	</g>
	<g>
		<path d="M188.999,95h-74c-0.829,0-1.5-0.671-1.5-1.5s0.671-1.5,1.5-1.5h74c0.828,0,1.5,0.671,1.5,1.5S189.827,95,188.999,95z"/>
	</g>
	<g>
		<path d="M172.999,109h-58c-0.829,0-1.5-0.671-1.5-1.5s0.671-1.5,1.5-1.5h58c0.828,0,1.5,0.671,1.5,1.5S173.827,109,172.999,109z"
			/>
	</g>
</g>
<g>
	<g>
		<path d="M172.999,154h-58c-0.829,0-1.5-0.671-1.5-1.5s0.671-1.5,1.5-1.5h58c0.828,0,1.5,0.671,1.5,1.5S173.827,154,172.999,154z"
			/>
	</g>
	<g>
		<path d="M188.999,168h-74c-0.829,0-1.5-0.672-1.5-1.5s0.671-1.5,1.5-1.5h74c0.828,0,1.5,0.672,1.5,1.5S189.827,168,188.999,168z"
			/>
	</g>
	<g>
		<path d="M194.999,182h-80c-0.829,0-1.5-0.672-1.5-1.5s0.671-1.5,1.5-1.5h80c0.828,0,1.5,0.672,1.5,1.5S195.827,182,194.999,182z"
			/>
	</g>
	<g>
		<path d="M188.999,195h-74c-0.829,0-1.5-0.672-1.5-1.5s0.671-1.5,1.5-1.5h74c0.828,0,1.5,0.672,1.5,1.5S189.827,195,188.999,195z"
			/>
	</g>
	<g>
		<path d="M172.999,209h-58c-0.829,0-1.5-0.672-1.5-1.5s0.671-1.5,1.5-1.5h58c0.828,0,1.5,0.672,1.5,1.5S173.827,209,172.999,209z"
			/>
	</g>
</g>
<g>
	<g>
		<path d="M38.341,294H32.75l-0.027-17h1.157h4.93c2.782,0,5.041,1.936,5.041,4.185c0,1.7-1.102,3.093-2.727,3.842
			c1.9,0.725,3.112,2.383,3.112,4.233c0,2.599-2.369,4.719-5.426,4.769L38.341,294z M38.313,278H34v6h4.809
			c2.176,0,3.884-1.201,3.884-3.025c0-1.699-1.708-2.975-3.884-2.975H38.313z M38.809,293c2.369,0,4.269-1.988,4.269-4.038
			c0-1.975-1.9-2.962-4.269-3.962H34v8h4.313H38.809z"/>
		<path d="M38.341,295H32.75c-0.552,0-0.999-0.374-1-0.926l-0.027-17.235c0-0.265,0.105-0.439,0.292-0.627
			c0.187-0.188,0.442-0.212,0.708-0.212h6.086c3.339,0,6.041,2.352,6.041,5.186c0,1.453-0.663,2.781-1.802,3.779
			c1.366,1.046,2.188,2.595,2.188,4.296c0,3.167-2.875,5.784-6.41,5.841l-0.378-0.032C38.412,295.074,38.376,295,38.341,295z
			 M35,292h3.809c1.784,0,3.269-1.307,3.269-2.802c0-1.434-1.43-2.655-3.262-2.751L35,286.472V292z M35,283h3.809
			c1.607,0,2.884-0.836,2.884-2.088c0-1.167-1.254-2.071-2.87-2.145L35,278.874V283z"/>
	</g>
	<g>
		<path d="M78.479,294.368c-4.627,0-8.648-3.824-8.648-8.848c0-4.849,3.883-8.748,8.648-8.748c4.958,0,8.648,3.874,8.648,8.748
			c0,2.6-0.964,4.824-2.644,6.424C82.914,293.495,80.821,294.368,78.479,294.368z M78.479,277.849c-4.131,0-7.464,3.399-7.464,7.673
			c0,4.324,3.278,7.773,7.464,7.773c4.297,0,7.547-3.449,7.547-7.773c0-2.25-0.909-4.249-2.396-5.624
			C82.335,278.598,80.49,277.849,78.479,277.849z"/>
		<path d="M78.479,295.368c-5.32,0-9.648-4.417-9.648-9.848c0-5.375,4.328-9.748,9.648-9.748c5.41,0,9.648,4.282,9.648,9.748
			c0,2.795-1.049,5.334-2.955,7.148C83.415,294.406,81.033,295.368,78.479,295.368z M78.479,278.849
			c-3.564,0-6.464,2.994-6.464,6.673c0,3.798,2.839,6.773,6.464,6.773c3.671,0,6.547-2.975,6.547-6.773
			c0-1.916-0.737-3.652-2.075-4.889C81.794,279.472,80.217,278.849,78.479,278.849z"/>
	</g>
	<g>
		<path d="M121.153,294.368c-4.627,0-8.648-3.824-8.648-8.848c0-4.849,3.883-8.748,8.648-8.748c4.958,0,8.648,3.874,8.648,8.748
			c0,2.6-0.964,4.824-2.644,6.424C125.588,293.495,123.495,294.368,121.153,294.368z M121.153,277.849
			c-4.131,0-7.464,3.399-7.464,7.673c0,4.324,3.278,7.773,7.464,7.773c4.297,0,7.547-3.449,7.547-7.773
			c0-2.25-0.909-4.249-2.396-5.624C125.009,278.598,123.164,277.849,121.153,277.849z"/>
		<path d="M121.153,295.368c-5.32,0-9.648-4.417-9.648-9.848c0-5.375,4.328-9.748,9.648-9.748c5.41,0,9.648,4.282,9.648,9.748
			c0,2.795-1.049,5.334-2.955,7.148C126.089,294.406,123.707,295.368,121.153,295.368z M121.153,278.849
			c-3.564,0-6.464,2.994-6.464,6.673c0,3.798,2.839,6.773,6.464,6.773c3.671,0,6.547-2.975,6.547-6.773
			c0-1.916-0.737-3.652-2.075-4.889C124.468,279.472,122.891,278.849,121.153,278.849z"/>
	</g>
	<g>
		<path d="M157,277v9.271l8.617-9.271h1.569l-7.105,7.363l9.227,9.637h-1.487l-8.482-8.901l-2.59,2.688l0.028,6.213h-1.157
			l-0.027-17H157z"/>
		<path d="M169.308,295h-1.487c-0.275,0-0.538-0.041-0.727-0.241l-7.758-8.17l-1.586,1.686l0.026,5.855
			c0.001,0.267-0.104,0.454-0.292,0.643c-0.188,0.188-0.442,0.228-0.708,0.228h-1.157c-0.552,0-0.999-0.374-1-0.926l-0.027-17.235
			c0-0.265,0.105-0.439,0.292-0.627s0.442-0.212,0.708-0.212h1.156c0.552,0,1.251,0.322,1.251,0.874v6.881l7.016-7.505
			c0.189-0.2,0.326-0.25,0.602-0.25h1.569c0.399,0,0.761,0.175,0.919,0.542c0.157,0.367,0.082,0.761-0.193,1.051l-6.454,6.796
			l8.577,9.076c0.273,0.29,0.349,0.64,0.19,1.006C170.068,294.839,169.707,295,169.308,295z"/>
	</g>
	<g>
		<path d="M201.185,294h-5.591l-0.027-17h1.156h4.931c2.781,0,5.04,1.936,5.04,4.185c0,1.7-1.102,3.093-2.727,3.842
			c1.9,0.725,3.112,2.383,3.112,4.233c0,2.599-2.369,4.719-5.426,4.769L201.185,294z M201.158,278H197v6h4.654
			c2.176,0,3.883-1.201,3.883-3.025c0-1.699-1.707-2.975-3.883-2.975H201.158z M201.654,293c2.368,0,4.269-1.988,4.269-4.038
			c0-1.975-1.9-2.962-4.269-3.962H197v8h4.158H201.654z"/>
		<path d="M201.185,295h-5.591c-0.552,0-0.999-0.374-1-0.926l-0.027-17.235c0-0.265,0.104-0.439,0.292-0.627
			s0.442-0.212,0.708-0.212h6.087c3.339,0,6.04,2.352,6.04,5.186c0,1.453-0.663,2.781-1.802,3.779
			c1.366,1.046,2.188,2.595,2.188,4.296c0,3.167-2.875,5.784-6.409,5.841l-0.38-0.032C201.255,295.074,201.22,295,201.185,295z
			 M197.723,292h3.931c1.783,0,3.269-1.307,3.269-2.802c0-1.434-1.352-2.655-3.183-2.751l-3.74,0.025v5.623L197.723,292z M198,283
			h3.654c1.606,0,2.883-0.836,2.883-2.088c0-1.167-1.175-2.071-2.791-2.145L198,278.874V283z"/>
	</g>
	<g>
		<path d="M239.753,277h0.964l7.051,17h-1.212l-2.975-7h-6.692l-2.92,7h-1.212L239.753,277z M243.168,286l-2.946-7.198l-2.92,7.198
			H243.168z"/>
		<path d="M247.768,295h-1.212c-0.404,0-0.769-0.156-0.924-0.531L242.913,288h-5.352l-2.667,6.464
			c-0.153,0.377-0.52,0.536-0.926,0.536h-1.212c-0.333,0-0.644-0.093-0.829-0.369c-0.187-0.275-0.223-0.59-0.098-0.898l6.996-17.189
			c0.153-0.377,0.52-0.543,0.927-0.543h0.964c0.406,0,0.772,0.182,0.926,0.558l7.051,17.239c0.126,0.309,0.09,0.571-0.096,0.848
			S248.101,295,247.768,295z M238.787,285h2.892l-1.452-3.548L238.787,285z"/>
	</g>
	<g>
		<path d="M287.276,292c-1.57,1-3.636,2.359-5.922,2.359c-4.792,0-8.703-3.944-8.703-8.767c0-4.849,3.911-8.821,8.703-8.821
			c2.286,0,4.352,0.9,5.922,2.4l-0.771,0.726c-1.35-1.274-3.194-2.049-5.15-2.049c-4.158,0-7.546,3.424-7.546,7.748
			c0,4.274,3.328,7.773,7.486,7.773c1.818,0,3.705-0.7,4.705-1.775V287h-5v-1h6v5.944V292H287.276z"/>
		<path d="M281.354,295.368c-5.351,0-9.703-4.384-9.703-9.772c0-5.417,4.353-9.823,9.703-9.823c2.457,0,4.806,0.951,6.612,2.676
			c0.199,0.19,0.311,0.453,0.31,0.728c-0.001,0.274-0.115,0.537-0.315,0.725l-0.771,0.725c-0.386,0.362-0.987,0.361-1.371-0.002
			c-1.195-1.129-2.822-1.776-4.464-1.776c-3.609,0-6.546,3.027-6.546,6.748c0,3.735,2.877,6.773,6.486,6.773
			c1.342,0,2.705-0.452,3.705-1.253V288h-4.14c-0.553,0-0.86-0.802-0.86-1.354v-1c0-0.552,0.307-0.646,0.86-0.646h6.417
			c0.553,0,0.723,0.094,0.723,0.646v6.299c0,0.276,0.024,0.615-0.177,0.804C286.023,294.438,283.815,295.368,281.354,295.368z"/>
	</g>
</g>
</svg>
