<?xml version="1.0" encoding="utf-8"?>
<!-- Generator: Adobe Illustrator 17.0.0, SVG Export Plug-In . SVG Version: 6.00 Build 0)  -->
<!DOCTYPE svg PUBLIC "-//W3C//DTD SVG 1.1//EN" "http://www.w3.org/Graphics/SVG/1.1/DTD/svg11.dtd">
<svg version="1.1" id="Layer_1" xmlns="http://www.w3.org/2000/svg" xmlns:xlink="http://www.w3.org/1999/xlink" x="0px" y="0px"
	 width="100px" height="100px" viewBox="0 0 100 100" enable-background="new 0 0 100 100" xml:space="preserve">
<g>
	
		<path fill="none" stroke="#71C4DA" stroke-width="3.9444" stroke-linecap="round" stroke-linejoin="round" stroke-miterlimit="10" d="
		M76.247,95.571H23.753V26.147L42.909,7.652c4.291-4.297,10.293-4.297,14.584,0l18.754,18.495V95.571z"/>
	<g>
		
			<path fill="none" stroke="#71C4DA" stroke-width="3.9444" stroke-linecap="round" stroke-linejoin="round" stroke-miterlimit="10" d="
			M57.156,56.327c0-4.006-3.151-6.099-7.153-6.099c-4.01,0-7.257,2.093-7.257,6.099c0,4.006,2.415,4.838,7.257,7.255
			c4.834,2.413,7.257,3.245,7.257,7.257c0,4.002-3.255,6.044-7.257,6.044c-4.01,0-7.257-2.042-7.257-6.044"/>
		
			<line fill="none" stroke="#71C4DA" stroke-width="3.9444" stroke-linecap="round" stroke-linejoin="round" stroke-miterlimit="10" x1="50.003" y1="45.141" x2="50.003" y2="49.085"/>
		
			<line fill="none" stroke="#71C4DA" stroke-width="3.9444" stroke-linecap="round" stroke-linejoin="round" stroke-miterlimit="10" x1="50.003" y1="77.684" x2="50.003" y2="82.615"/>
	</g>
	
		<path fill="none" stroke="#71C4DA" stroke-width="3.9444" stroke-linecap="round" stroke-linejoin="round" stroke-miterlimit="10" d="
		M55.881,23.74c0,2.901-2.353,5.254-5.254,5.254c-2.904,0-5.254-2.354-5.254-5.254c0-2.906,2.35-5.254,5.254-5.254
		C53.528,18.485,55.881,20.833,55.881,23.74z"/>
</g>
</svg>
