<?xml version="1.0" encoding="utf-8"?>
<!-- Generator: Adobe Illustrator 17.0.0, SVG Export Plug-In . SVG Version: 6.00 Build 0)  -->
<!DOCTYPE svg PUBLIC "-//W3C//DTD SVG 1.1//EN" "http://www.w3.org/Graphics/SVG/1.1/DTD/svg11.dtd">
<svg version="1.1" id="Layer_1" xmlns="http://www.w3.org/2000/svg" xmlns:xlink="http://www.w3.org/1999/xlink" x="0px" y="0px"
	 width="100px" height="100px" viewBox="0 0 100 100" enable-background="new 0 0 100 100" xml:space="preserve">
<linearGradient id="SVGID_1_" gradientUnits="userSpaceOnUse" x1="41.419" y1="35.5225" x2="72.1378" y2="35.5225">
	<stop  offset="0" style="stop-color:#84DD7F"/>
	<stop  offset="1" style="stop-color:#69AA8C"/>
</linearGradient>
<path fill="url(#SVGID_1_)" d="M71.327,28.811c-1.081-1.081-2.832-1.081-3.913,0L53.872,42.35c-0.764-0.389-1.592-0.664-2.466-0.809
	V15.233c0-1.53-1.238-2.767-2.767-2.767c-1.53,0-2.767,1.238-2.767,2.767v27.246c-2.651,1.462-4.453,4.283-4.453,7.519
	c0,4.731,3.85,8.581,8.582,8.581c4.73,0,8.577-3.85,8.577-8.581c0-1.32-0.308-2.566-0.842-3.684l13.591-13.59
	C72.408,31.643,72.408,29.892,71.327,28.811z M50.001,53.044c-1.681,0-3.048-1.367-3.048-3.047c0-1.681,1.368-3.048,3.048-3.048
	c1.678,0,3.043,1.368,3.043,3.048S51.679,53.044,50.001,53.044z"/>
<linearGradient id="SVGID_2_" gradientUnits="userSpaceOnUse" x1="0.137" y1="50" x2="99.863" y2="50">
	<stop  offset="0" style="stop-color:#84DD7F"/>
	<stop  offset="1" style="stop-color:#69AA8C"/>
</linearGradient>
<circle fill="none" stroke="url(#SVGID_2_)" stroke-width="4" stroke-miterlimit="10" cx="50" cy="50" r="47.863"/>
</svg>
