<?xml version="1.0" encoding="utf-8"?>
<!-- Generator: Adobe Illustrator 17.0.0, SVG Export Plug-In . SVG Version: 6.00 Build 0)  -->
<!DOCTYPE svg PUBLIC "-//W3C//DTD SVG 1.1//EN" "http://www.w3.org/Graphics/SVG/1.1/DTD/svg11.dtd">
<svg version="1.1" id="Layer_1" xmlns="http://www.w3.org/2000/svg" xmlns:xlink="http://www.w3.org/1999/xlink" x="0px" y="0px"
	 width="100px" height="100px" viewBox="0 0 100 100" enable-background="new 0 0 100 100" xml:space="preserve">
<g>
	<path fill="#F87D93" d="M50.001,95.948c-25.337,0-45.95-20.614-45.95-45.95c0-25.334,20.614-45.945,45.95-45.945
		c25.334,0,45.945,20.611,45.945,45.945C95.947,75.334,75.335,95.948,50.001,95.948z M50.001,9.213
		c-22.491,0-40.789,18.295-40.789,40.784c0,22.491,18.298,40.789,40.789,40.789c22.489,0,40.784-18.298,40.784-40.789
		C90.786,27.509,72.49,9.213,50.001,9.213z"/>
	<path fill="#F87D93" d="M48.731,45.96c-1.426,0-2.581-1.154-2.581-2.581V17.575c0-1.426,1.154-2.581,2.581-2.581
		c1.426,0,2.581,1.154,2.581,2.581V43.38C51.312,44.806,50.158,45.96,48.731,45.96z"/>
	<path fill="#F87D93" d="M53.892,48.815c-0.66,0-1.32-0.252-1.824-0.756c-1.008-1.008-1.008-2.641,0-3.649l14.173-14.17
		c1.008-1.008,2.641-1.008,3.649,0c1.008,1.008,1.008,2.641,0,3.649L55.717,48.06C55.213,48.564,54.553,48.815,53.892,48.815z"/>
	<path fill="#F87D93" d="M50.001,58.001c-4.413,0-8.004-3.591-8.004-8.003c0-4.413,3.591-8.004,8.004-8.004
		c4.41,0,7.999,3.591,7.999,8.004C58,54.41,54.412,58.001,50.001,58.001z M50.001,47.155c-1.567,0-2.843,1.275-2.843,2.843
		c0,1.567,1.275,2.842,2.843,2.842c1.565,0,2.838-1.275,2.838-2.842C52.839,48.43,51.566,47.155,50.001,47.155z"/>
	<path fill="#F87D93" d="M50.001,58.001c-4.413,0-8.004-3.591-8.004-8.003c0-4.413,3.591-8.004,8.004-8.004
		c4.41,0,7.999,3.591,7.999,8.004C58,54.41,54.412,58.001,50.001,58.001z M50.001,47.155c-1.567,0-2.843,1.275-2.843,2.843
		c0,1.567,1.275,2.842,2.843,2.842c1.565,0,2.838-1.275,2.838-2.842C52.839,48.43,51.566,47.155,50.001,47.155z"/>
</g>
</svg>
