<?xml version="1.0" encoding="utf-8"?>
<!-- Generator: Adobe Illustrator 17.0.0, SVG Export Plug-In . SVG Version: 6.00 Build 0)  -->
<!DOCTYPE svg PUBLIC "-//W3C//DTD SVG 1.1//EN" "http://www.w3.org/Graphics/SVG/1.1/DTD/svg11.dtd">
<svg version="1.1" id="Layer_1" xmlns="http://www.w3.org/2000/svg" xmlns:xlink="http://www.w3.org/1999/xlink" x="0px" y="0px"
	 width="100px" height="100px" viewBox="0 0 100 100" enable-background="new 0 0 100 100" xml:space="preserve">
<g>
	<linearGradient id="SVGID_1_" gradientUnits="userSpaceOnUse" x1="22.9909" y1="50.0001" x2="79.9672" y2="50.0001">
		<stop  offset="0" style="stop-color:#84DD7F"/>
		<stop  offset="1" style="stop-color:#69AA8C"/>
	</linearGradient>
	<path fill="url(#SVGID_1_)" d="M24.512,71.597c-0.643,0-1.209-0.464-1.316-1.119c-0.835-5.069,0.923-12.169,4.475-18.087
		c4.453-7.42,11.241-12.216,19.11-13.507c16.775-2.754,25.198-4.136,30.886-10.07c0.429-0.446,1.109-0.541,1.643-0.225
		c0.532,0.314,0.78,0.954,0.598,1.545c-2.273,7.325-10.894,31.602-26.439,36.497c-6.857,2.164-14.117,0.318-21.583-5.473
		c-0.583-0.453-0.688-1.291-0.238-1.874c0.453-0.583,1.291-0.688,1.874-0.236c6.73,5.22,13.173,6.916,19.143,5.036
		c12.024-3.787,19.741-20.795,23.189-30.289c-6.043,4.014-14.457,5.395-28.642,7.724C38.136,43.008,32.82,49,29.961,53.766
		c-3.692,6.15-4.734,12.608-4.132,16.28c0.12,0.728-0.373,1.415-1.101,1.534C24.657,71.592,24.584,71.597,24.512,71.597z"/>
	<linearGradient id="SVGID_2_" gradientUnits="userSpaceOnUse" x1="20.0324" y1="40.5084" x2="72.7119" y2="40.5084">
		<stop  offset="0" style="stop-color:#84DD7F"/>
		<stop  offset="1" style="stop-color:#69AA8C"/>
	</linearGradient>
	<path fill="url(#SVGID_2_)" d="M21.379,52.285c-0.722,0-1.317-0.326-1.335-1.053c-0.172-6.739,1.574-11.866,5.19-15.481
		c7.147-7.149,20.041-6.757,31.416-6.465c5.566,0.145,10.82,0.309,14.427-0.521c0.72-0.164,1.436,0.298,1.6,1.017
		c0.167,0.719-0.282,1.444-1.002,1.609c-3.936,0.907-9.357,0.77-15.093,0.625c-10.837-0.279-23.122-0.591-29.459,5.747
		c-3.122,3.122-4.565,7.338-4.408,13.401c0.018,0.737-0.563,1.121-1.301,1.121C21.402,52.285,21.389,52.285,21.379,52.285z"/>
</g>
<linearGradient id="SVGID_3_" gradientUnits="userSpaceOnUse" x1="0.137" y1="50" x2="99.863" y2="50">
	<stop  offset="0" style="stop-color:#84DD7F"/>
	<stop  offset="1" style="stop-color:#69AA8C"/>
</linearGradient>
<circle fill="none" stroke="url(#SVGID_3_)" stroke-width="4" stroke-miterlimit="10" cx="50" cy="50" r="47.863"/>
</svg>
