<?xml version="1.0" encoding="utf-8"?>
<!-- Generator: Adobe Illustrator 17.0.0, SVG Export Plug-In . SVG Version: 6.00 Build 0)  -->
<!DOCTYPE svg PUBLIC "-//W3C//DTD SVG 1.1//EN" "http://www.w3.org/Graphics/SVG/1.1/DTD/svg11.dtd">
<svg version="1.1" id="Layer_1" xmlns="http://www.w3.org/2000/svg" xmlns:xlink="http://www.w3.org/1999/xlink" x="0px" y="0px"
	 width="100px" height="100px" viewBox="0 0 100 100" enable-background="new 0 0 100 100" xml:space="preserve">
<g>
	<path fill="#68AB8D" d="M8.501,85.165c-1.047,0-1.968-0.756-2.142-1.822C5,75.09,7.862,63.529,13.646,53.893
		C20.897,41.812,31.949,34.002,44.761,31.9c27.314-4.484,41.027-6.735,50.289-16.396c0.699-0.726,1.805-0.881,2.675-0.367
		c0.866,0.512,1.27,1.554,0.973,2.516c-3.701,11.927-17.738,51.454-43.048,59.425c-11.164,3.523-22.985,0.518-35.141-8.911
		c-0.949-0.737-1.121-2.102-0.387-3.051c0.737-0.949,2.102-1.121,3.051-0.384c10.958,8.5,21.448,11.26,31.168,8.2
		c19.577-6.166,32.143-33.858,37.757-49.316c-9.839,6.536-23.539,8.784-46.635,12.576c-14.778,2.425-23.433,12.181-28.089,19.94
		c-6.011,10.014-7.708,20.528-6.727,26.507c0.195,1.185-0.607,2.304-1.792,2.497C8.737,85.157,8.618,85.165,8.501,85.165z"/>
	<path fill="#68AB8D" d="M3.399,53.721c-1.176,0-2.144-0.531-2.174-1.714c-0.28-10.973,2.563-19.32,8.451-25.206
		c11.636-11.64,32.631-11.001,51.151-10.527c9.062,0.236,17.617,0.503,23.49-0.849c1.172-0.267,2.338,0.486,2.605,1.656
		c0.272,1.17-0.459,2.351-1.631,2.62c-6.408,1.476-15.235,1.253-24.575,1.017c-17.645-0.454-37.647-0.962-47.966,9.357
		c-5.083,5.083-7.432,11.948-7.177,21.819c0.03,1.2-0.917,1.826-2.119,1.826C3.437,53.721,3.416,53.721,3.399,53.721z"/>
</g>
</svg>
