<?xml version="1.0" encoding="utf-8"?>
<!-- Generator: Adobe Illustrator 17.0.0, SVG Export Plug-In . SVG Version: 6.00 Build 0)  -->
<!DOCTYPE svg PUBLIC "-//W3C//DTD SVG 1.1//EN" "http://www.w3.org/Graphics/SVG/1.1/DTD/svg11.dtd">
<svg version="1.1" id="Layer_1" xmlns="http://www.w3.org/2000/svg" xmlns:xlink="http://www.w3.org/1999/xlink" x="0px" y="0px"
	 width="1170.146px" height="400px" viewBox="0 -84.916 1170.146 400" enable-background="new 0 -84.916 1170.146 400"
	 xml:space="preserve">
<g>
	<polygon fill="#D0F2CC" points="1169.889,-26.566 1170.044,-81.252 770,-26.548 	"/>
	<polygon fill="#A1EA9B" points="1170.146,-26.588 683.183,-71.315 237.184,-26.548 	"/>
	<polygon fill="#D0F2CC" points="540.711,-26.566 312.733,-84.916 0,-26.548 	"/>
	<polygon fill="#D0F2CC" points="45.371,-26.566 0.044,-81.252 0,-26.548 	"/>
	<polygon fill="#A1EA9B" points="582.889,-26.566 40.053,-77.55 0,-26.508 	"/>
	<polygon fill="#84DD7F" points="0,-26.548 439.914,-77.721 932.962,-26.508 	"/>
	<polygon fill="#84DD7F" points="587.258,-26.605 863.735,-72.604 1170.146,-26.548 	"/>
</g>
<g>
	<polygon fill="#C1E0D0" points="0.074,262.381 -0.081,311.743 399.962,262.365 	"/>
	<polygon fill="#8DC4A8" points="0,262.365 486.964,302.737 932.962,262.329 	"/>
	<polygon fill="#C1E0D0" points="629.251,262.381 857.229,315.05 1169.962,262.365 	"/>
	<polygon fill="#C1E0D0" points="1124.591,262.381 1169.919,311.743 1169.962,262.365 	"/>
	<polygon fill="#8DC4A8" points="587.074,262.381 1129.909,308.401 1169.962,262.329 	"/>
	<polygon fill="#69AA8C" points="1169.962,262.365 730.048,308.556 237,262.329 	"/>
	<polygon fill="#69AA8C" points="582.889,262.381 306.411,303.901 0,262.329 	"/>
</g>
<linearGradient id="SVGID_1_" gradientUnits="userSpaceOnUse" x1="583.9469" y1="-10.9667" x2="585.1373" y2="234.2633">
	<stop  offset="0" style="stop-color:#84DD7F"/>
	<stop  offset="1" style="stop-color:#69AA8C"/>
</linearGradient>
<rect x="-0.427" y="-26.493" fill="url(#SVGID_1_)" width="1170" height="289"/>
</svg>
